<svg width="357" height="351" viewBox="0 0 357 351" fill="none" xmlns="http://www.w3.org/2000/svg">
<g filter="url(#filter0_dddd_2692_12987)">
<mask id="path-1-outside-1_2692_12987" maskUnits="userSpaceOnUse" x="41.2356" y="6.86669" width="273.703" height="194.086" fill="black">
<rect fill="white" x="41.2356" y="6.86669" width="273.703" height="194.086"/>
<path d="M70.2561 16.5077C71.2376 11.8372 75.8194 8.84659 80.4899 9.82805L305.297 57.069C309.968 58.0504 312.958 62.6323 311.977 67.3028L286.114 190.376C285.133 195.046 280.551 198.037 275.88 197.055L51.0732 149.814C46.4027 148.833 43.4121 144.251 44.3936 139.581L70.2561 16.5077Z"/>
</mask>
<path d="M70.2561 16.5077C71.2376 11.8372 75.8194 8.84659 80.4899 9.82805L305.297 57.069C309.968 58.0504 312.958 62.6323 311.977 67.3028L286.114 190.376C285.133 195.046 280.551 198.037 275.88 197.055L51.0732 149.814C46.4027 148.833 43.4121 144.251 44.3936 139.581L70.2561 16.5077Z" fill="white"/>
<path d="M80.4899 9.82805L80.2843 10.8067L305.091 58.0476L305.297 57.069L305.503 56.0904L80.6955 8.84943L80.4899 9.82805ZM311.977 67.3028L310.998 67.0971L285.136 190.17L286.114 190.376L287.093 190.581L312.955 67.5084L311.977 67.3028ZM275.88 197.055L276.086 196.077L51.2789 148.836L51.0732 149.814L50.8676 150.793L275.675 198.034L275.88 197.055ZM44.3936 139.581L45.3722 139.786L71.2347 16.7133L70.2561 16.5077L69.2775 16.302L43.415 139.375L44.3936 139.581ZM51.0732 149.814L51.2789 148.836C47.1488 147.968 44.5043 143.916 45.3722 139.786L44.3936 139.581L43.415 139.375C42.3199 144.586 45.6566 149.698 50.8676 150.793L51.0732 149.814ZM286.114 190.376L285.136 190.17C284.268 194.3 280.216 196.945 276.086 196.077L275.88 197.055L275.675 198.034C280.886 199.129 285.998 195.792 287.093 190.581L286.114 190.376ZM305.297 57.069L305.091 58.0476C309.222 58.9155 311.866 62.9671 310.998 67.0971L311.977 67.3028L312.955 67.5084C314.05 62.2974 310.714 57.1854 305.503 56.0904L305.297 57.069ZM80.4899 9.82805L80.6955 8.84943C75.4846 7.75439 70.3725 11.091 69.2775 16.302L70.2561 16.5077L71.2347 16.7133C72.1026 12.5833 76.1542 9.9388 80.2843 10.8067L80.4899 9.82805Z" fill="#003479" mask="url(#path-1-outside-1_2692_12987)"/>
<mask id="path-3-outside-2_2692_12987" maskUnits="userSpaceOnUse" x="70.7065" y="20.5117" width="54.4766" height="54.4766" fill="black">
<rect fill="white" x="70.7065" y="20.5117" width="54.4766" height="54.4766"/>
<path d="M76.4151 43.2258C78.9138 31.3352 90.5785 23.7216 102.469 26.2202C114.36 28.7189 121.973 40.3837 119.475 52.2743C116.976 64.1648 105.311 71.7785 93.4206 69.2798C81.53 66.7811 73.9164 55.1163 76.4151 43.2258Z"/>
</mask>
<path d="M93.4206 69.2798L93.6262 68.3012C82.2761 65.9161 75.0086 54.7815 77.3937 43.4314L76.4151 43.2258L75.4364 43.0201C72.8242 55.4512 80.7839 67.6462 93.2149 70.2584L93.4206 69.2798ZM119.475 52.2743L118.496 52.0686C116.111 63.4187 104.976 70.6863 93.6262 68.3012L93.4206 69.2798L93.2149 70.2584C105.646 72.8707 117.841 64.911 120.453 52.4799L119.475 52.2743ZM102.469 26.2202L102.263 27.1989C113.614 29.584 120.881 40.7185 118.496 52.0686L119.475 52.2743L120.453 52.4799C123.065 40.0489 115.106 27.8539 102.675 25.2416L102.469 26.2202ZM102.469 26.2202L102.675 25.2416C90.2437 22.6294 78.0487 30.5891 75.4364 43.0201L76.4151 43.2258L77.3937 43.4314C79.7788 32.0813 90.9134 24.8138 102.263 27.1989L102.469 26.2202Z" fill="#BBBBBB" mask="url(#path-3-outside-2_2692_12987)"/>
<g clip-path="url(#clip0_2692_12987)">
<path fill-rule="evenodd" clip-rule="evenodd" d="M93.5623 52.814L99.9132 54.1485L102.322 42.6847L95.9713 41.3502L93.5623 52.814Z" fill="#FF5F00"/>
<path fill-rule="evenodd" clip-rule="evenodd" d="M95.1719 47.1673C95.6607 44.8415 97.18 42.998 99.1487 42.0179C98.1191 40.7821 96.6839 39.8724 94.9907 39.5166C90.9824 38.6742 87.0472 41.2557 86.2011 45.2821C85.355 49.3086 87.9183 53.2556 91.9266 54.0979C93.6197 54.4537 95.2998 54.1986 96.7397 53.4817C95.3321 51.792 94.6832 49.493 95.1719 47.1673Z" fill="#EB001B"/>
<path fill-rule="evenodd" clip-rule="evenodd" d="M108.513 54.688L108.572 54.4051L108.499 54.3896L108.373 54.5665L108.329 54.3541L108.256 54.3386L108.196 54.6215L108.248 54.6324L108.293 54.419L108.334 54.6198L108.388 54.6311L108.506 54.4633L108.461 54.6771L108.513 54.688ZM108.047 54.5901L108.096 54.3554L108.19 54.3752L108.2 54.3274L107.961 54.277L107.951 54.3248L108.045 54.3446L107.995 54.5793L108.047 54.5901ZM109.689 50.2178C108.843 54.2443 104.907 56.8257 100.899 55.9834C99.2059 55.6276 97.7704 54.7178 96.7411 53.4821C98.7097 52.502 100.229 50.6584 100.718 48.3327C101.206 46.0072 100.558 43.708 99.1501 42.0183C100.59 41.3013 102.27 41.0463 103.963 41.4021C107.971 42.2443 110.535 46.1914 109.689 50.2178Z" fill="#F79E1B"/>
</g>
<path d="M129.476 48.2449L131.271 39.7042L134.315 40.3439C134.979 40.4835 135.504 40.7201 135.89 41.0537C136.276 41.3873 136.533 41.7868 136.661 42.2522C136.791 42.7148 136.8 43.2074 136.691 43.7301C136.58 44.2556 136.371 44.7051 136.063 45.0788C135.759 45.4502 135.361 45.7121 134.87 45.8645C134.383 46.0146 133.809 46.0202 133.147 45.8811L131.053 45.4412L131.283 44.3486L133.26 44.764C133.68 44.8522 134.035 44.8515 134.327 44.7618C134.619 44.6694 134.853 44.5095 135.029 44.2823C135.204 44.055 135.326 43.7801 135.394 43.4576C135.461 43.1351 135.46 42.8358 135.391 42.5599C135.321 42.284 135.169 42.0474 134.935 41.8501C134.703 41.6534 134.373 41.5101 133.945 41.4201L132.327 41.0801L130.764 48.5157L129.476 48.2449ZM138.664 50.3238C138.258 50.2385 137.907 50.0864 137.611 49.8673C137.315 49.6454 137.101 49.3698 136.97 49.0403C136.842 48.7115 136.822 48.3371 136.91 47.9173C136.986 47.5559 137.118 47.273 137.306 47.0687C137.494 46.8644 137.721 46.7189 137.986 46.6324C138.251 46.5458 138.536 46.4984 138.843 46.4903C139.149 46.4821 139.458 46.4918 139.769 46.5193C140.162 46.5555 140.481 46.5848 140.726 46.6072C140.971 46.6269 141.155 46.6147 141.278 46.5708C141.4 46.5268 141.477 46.4298 141.509 46.2797L141.515 46.2505C141.591 45.8863 141.548 45.5825 141.384 45.3391C141.223 45.0962 140.941 44.9325 140.538 44.8478C140.118 44.7595 139.768 44.7832 139.487 44.9186C139.209 45.0519 139.001 45.2214 138.862 45.4274L137.746 44.9142C137.967 44.5542 138.236 44.2827 138.553 44.0997C138.873 43.9145 139.22 43.8044 139.593 43.7696C139.967 43.732 140.347 43.7538 140.733 43.8351C140.989 43.8888 141.254 43.9763 141.527 44.0977C141.804 44.2168 142.051 44.3819 142.268 44.593C142.488 44.8046 142.647 45.0747 142.746 45.4033C142.846 45.7291 142.847 46.1256 142.749 46.5926L141.855 50.8463L140.638 50.5904L140.822 49.7147L140.772 49.7041C140.657 49.8485 140.503 49.9815 140.309 50.1033C140.115 50.2251 139.881 50.3109 139.606 50.3606C139.331 50.4103 139.017 50.398 138.664 50.3238ZM139.146 49.3799C139.491 49.4524 139.8 49.4462 140.073 49.3614C140.349 49.2771 140.574 49.1386 140.748 48.9459C140.925 48.7509 141.041 48.5269 141.094 48.2739L141.267 47.4482C141.214 47.4834 141.119 47.507 140.983 47.519C140.85 47.5289 140.7 47.5307 140.533 47.5247C140.366 47.5158 140.204 47.5064 140.047 47.4965C139.89 47.4839 139.758 47.4737 139.652 47.4659C139.404 47.4457 139.172 47.4507 138.957 47.4809C138.744 47.5117 138.564 47.5827 138.416 47.6938C138.271 47.8027 138.175 47.9684 138.129 48.1908C138.064 48.4994 138.129 48.7569 138.323 48.9632C138.519 49.1668 138.793 49.3057 139.146 49.3799ZM143.57 53.7148C143.384 53.6757 143.217 53.6248 143.071 53.562C142.924 53.5021 142.816 53.4476 142.748 53.3984L143.263 52.4398C143.478 52.5489 143.676 52.6179 143.855 52.647C144.035 52.676 144.206 52.6423 144.369 52.5458C144.534 52.4499 144.699 52.2713 144.865 52.0099L145.108 51.617L144.128 44.6355L145.463 44.916L146.04 50.2278L146.107 50.2418L148.774 45.6118L150.113 45.8931L145.947 52.5988C145.755 52.9067 145.54 53.1562 145.302 53.3472C145.064 53.541 144.802 53.6689 144.516 53.7307C144.23 53.7926 143.915 53.7873 143.57 53.7148ZM149.938 52.5449L151.284 46.1393L152.531 46.4014L151.185 52.8069L149.938 52.5449ZM152.122 45.2833C151.905 45.2377 151.734 45.1263 151.609 44.949C151.487 44.7695 151.447 44.5783 151.49 44.3754C151.533 44.1696 151.646 44.0105 151.829 43.8981C152.016 43.7835 152.218 43.7489 152.435 43.7945C152.651 43.8401 152.821 43.9526 152.943 44.1321C153.068 44.3094 153.109 44.5009 153.066 44.7066C153.023 44.9096 152.909 45.0684 152.722 45.183C152.539 45.2954 152.339 45.3289 152.122 45.2833ZM154.909 49.6181L154.11 53.4214L152.863 53.1594L154.209 46.7539L155.406 47.0054L155.187 48.0479L155.266 48.0646C155.484 47.7564 155.772 47.5324 156.13 47.3927C156.49 47.2536 156.911 47.2345 157.392 47.3356C157.828 47.4273 158.191 47.5994 158.481 47.8518C158.771 48.1015 158.968 48.4246 159.074 48.8212C159.179 49.2179 159.176 49.6803 159.065 50.2085L158.209 54.2829L156.962 54.0209L157.787 50.0966C157.884 49.6323 157.84 49.2441 157.653 48.9319C157.466 48.617 157.162 48.4151 156.739 48.3263C156.45 48.2656 156.18 48.2741 155.928 48.3519C155.68 48.4302 155.464 48.5766 155.283 48.791C155.105 49.0033 154.98 49.279 154.909 49.6181ZM162.034 57.7342C161.525 57.6273 161.102 57.4685 160.763 57.258C160.426 57.048 160.166 56.8089 159.981 56.5408C159.797 56.2727 159.675 55.996 159.616 55.7107L160.781 55.4939C160.83 55.632 160.903 55.7823 160.999 55.9448C161.098 56.1107 161.246 56.265 161.442 56.4079C161.641 56.5514 161.913 56.6593 162.258 56.7318C162.73 56.8311 163.145 56.7978 163.502 56.6319C163.859 56.4688 164.09 56.137 164.195 55.6366L164.46 54.3771L164.38 54.3605C164.277 54.4809 164.136 54.6097 163.96 54.7467C163.786 54.8843 163.563 54.9885 163.293 55.0595C163.023 55.1304 162.691 55.1247 162.299 55.0423C161.793 54.9359 161.362 54.722 161.006 54.4004C160.653 54.0766 160.407 53.6577 160.269 53.1437C160.133 52.6276 160.137 52.0289 160.28 51.3478C160.423 50.6666 160.661 50.107 160.994 49.669C161.33 49.2315 161.728 48.9262 162.188 48.7529C162.649 48.5769 163.137 48.5429 163.651 48.651C164.049 48.7345 164.356 48.8687 164.572 49.0536C164.79 49.2357 164.948 49.4286 165.047 49.6324C165.15 49.8367 165.224 50.0135 165.271 50.1628L165.363 50.182L165.581 49.1436L166.803 49.4004L165.427 55.9478C165.311 56.4982 165.089 56.9231 164.759 57.2225C164.429 57.5218 164.028 57.7104 163.556 57.7883C163.086 57.8667 162.579 57.8487 162.034 57.7342ZM162.792 54.0659C163.151 54.1413 163.471 54.1215 163.754 54.0067C164.04 53.8897 164.279 53.6876 164.473 53.4003C164.671 53.1108 164.816 52.745 164.909 52.303C164.999 51.872 165.015 51.4791 164.956 51.1242C164.897 50.7692 164.763 50.474 164.554 50.2385C164.346 50.0003 164.06 49.8429 163.695 49.7663C163.32 49.6875 162.987 49.719 162.696 49.8611C162.405 50.0003 162.161 50.2219 161.964 50.5259C161.769 50.8304 161.629 51.1871 161.543 51.5958C161.455 52.0156 161.441 52.3974 161.503 52.7412C161.564 53.085 161.701 53.3722 161.914 53.6027C162.129 53.8338 162.422 53.9882 162.792 54.0659ZM171.626 57.1023L171.087 50.3006L172.376 50.5714L172.642 55.5393L172.705 55.5524L174.953 51.113L176.241 51.3838L176.508 56.3299L176.571 56.3431L178.802 51.9219L180.091 52.1927L176.864 58.203L175.592 57.9357L175.263 53.0374L175.167 53.0173L172.894 57.3687L171.626 57.1023ZM179.928 58.8469L181.274 52.4413L182.521 52.7033L181.175 59.1089L179.928 58.8469ZM182.111 51.5853C181.894 51.5397 181.723 51.4283 181.598 51.251C181.476 51.0715 181.436 50.8803 181.479 50.6774C181.522 50.4716 181.636 50.3125 181.819 50.2001C182.006 50.0855 182.207 50.0509 182.424 50.0965C182.641 50.1421 182.81 50.2546 182.932 50.4341C183.058 50.6114 183.099 50.8029 183.055 51.0086C183.013 51.2116 182.898 51.3704 182.712 51.485C182.528 51.5974 182.328 51.6309 182.111 51.5853ZM187.188 53.6842L186.978 54.6851L183.479 53.9498L183.69 52.9489L187.188 53.6842ZM184.95 51.6115L186.197 51.8735L184.924 57.9329C184.873 58.1748 184.871 58.3645 184.918 58.502C184.965 58.6367 185.041 58.7383 185.145 58.8068C185.253 58.873 185.375 58.9204 185.512 58.9491C185.612 58.9701 185.701 58.9815 185.779 58.9834C185.857 58.9853 185.917 58.9864 185.961 58.9869L185.97 60.0642C185.892 60.0768 185.783 60.083 185.644 60.0828C185.504 60.0853 185.333 60.067 185.133 60.0277C184.803 59.9643 184.51 59.8416 184.252 59.6597C183.994 59.4778 183.804 59.2406 183.683 58.948C183.562 58.6554 183.541 58.3159 183.623 57.9294L184.95 51.6115ZM189.405 56.8672L188.606 60.6705L187.359 60.4085L189.154 51.8678L190.384 52.1263L189.716 55.3041L189.796 55.3207C190.018 55.0075 190.305 54.7819 190.656 54.6438C191.008 54.5056 191.432 54.4889 191.93 54.5935C192.369 54.6858 192.734 54.8567 193.024 55.1064C193.317 55.3566 193.516 55.6801 193.621 56.0767C193.73 56.4711 193.728 56.9352 193.616 57.469L192.76 61.5434L191.513 61.2813L192.338 57.3571C192.436 56.8873 192.392 56.4976 192.204 56.1883C192.017 55.8761 191.708 55.6747 191.277 55.5842C190.983 55.5222 190.706 55.5293 190.446 55.6053C190.189 55.682 189.968 55.8272 189.784 56.041C189.603 56.2526 189.477 56.5281 189.405 56.8672Z" fill="#8E8E8E"/>
<path d="M127.891 64.4471L128.342 62.7783L126.729 63.4103L126.406 62.4193L128.079 61.9785L126.725 60.9013L127.419 60.1242L128.642 61.3521L128.901 59.643L129.914 59.8559L129.468 61.5256L131.081 60.8936L131.404 61.8846L129.726 62.3246L131.085 63.4026L130.39 64.1798L129.168 62.9518L128.905 64.6601L127.891 64.4471ZM134.268 65.7871L134.718 64.1183L133.105 64.7503L132.782 63.7593L134.455 63.3184L133.101 62.2413L133.796 61.4641L135.018 62.692L135.277 60.9829L136.291 61.1959L135.844 62.8655L137.457 62.2335L137.78 63.2245L136.103 63.6645L137.461 64.7425L136.767 65.5197L135.544 64.2918L135.281 66L134.268 65.7871ZM140.644 67.127L141.095 65.4582L139.481 66.0902L139.158 65.0992L140.832 64.6583L139.477 63.5812L140.172 62.804L141.395 64.0319L141.654 62.3228L142.667 62.5358L142.22 64.2055L143.834 63.5734L144.157 64.5645L142.479 65.0045L143.838 66.0824L143.143 66.8596L141.921 65.6317L141.657 67.3399L140.644 67.127ZM147.02 68.4669L147.471 66.7981L145.858 67.4301L145.535 66.4391L147.208 65.9982L145.854 64.9211L146.548 64.1439L147.771 65.3719L148.03 63.6628L149.043 63.8757L148.597 65.5454L150.21 64.9134L150.533 65.9044L148.855 66.3444L150.214 67.4224L149.519 68.1996L148.297 66.9716L148.034 68.6799L147.02 68.4669ZM150.329 71.409L150.587 70.1788L155.414 65.2145L156.44 65.4301L156.072 67.1816L155.447 67.0502L152.195 70.4034L152.181 70.4701L157.239 71.5331L156.972 72.805L150.329 71.409ZM154.07 73.8499L154.482 71.8899L154.614 71.3429L155.881 65.3127L157.341 65.6194L155.546 74.1601L154.07 73.8499ZM157.971 74.6697L158.206 73.5521L161.782 71.2685C162.126 71.0417 162.416 70.837 162.651 70.6543C162.887 70.4716 163.074 70.286 163.213 70.0973C163.351 69.9087 163.445 69.6962 163.495 69.4599C163.551 69.1902 163.539 68.9466 163.457 68.729C163.375 68.5087 163.239 68.3232 163.047 68.1726C162.855 68.022 162.623 67.918 162.35 67.8608C162.069 67.8018 161.811 67.8084 161.575 67.8808C161.34 67.9504 161.142 68.0786 160.981 68.2653C160.822 68.4527 160.712 68.6923 160.651 68.9842L159.179 68.6749C159.293 68.1327 159.516 67.6875 159.847 67.3391C160.179 66.9908 160.584 66.7524 161.064 66.6239C161.547 66.496 162.07 66.4913 162.635 66.6099C163.207 66.7302 163.688 66.943 164.077 67.2482C164.466 67.5535 164.74 67.9175 164.901 68.3402C165.065 68.7636 165.096 69.2144 164.996 69.6926C164.929 70.0123 164.802 70.3136 164.614 70.5965C164.427 70.8794 164.14 71.1761 163.752 71.4866C163.368 71.7976 162.843 72.1619 162.177 72.5795L160.39 73.7672L160.378 73.8256L164.098 74.6073L163.826 75.9001L157.971 74.6697ZM168.306 76.9633C167.705 76.8371 167.193 76.6221 166.769 76.3182C166.348 76.0149 166.041 75.6514 165.849 75.2278C165.656 74.8041 165.602 74.3501 165.687 73.8656L167.255 74.1951C167.22 74.4288 167.254 74.6464 167.357 74.848C167.46 75.0468 167.617 75.2177 167.828 75.3607C168.039 75.5037 168.288 75.6053 168.574 75.6655C168.88 75.7298 169.162 75.7339 169.421 75.6779C169.68 75.6191 169.896 75.5079 170.07 75.3441C170.244 75.1803 170.355 74.973 170.405 74.7222C170.462 74.4642 170.444 74.2222 170.349 73.9962C170.254 73.7702 170.089 73.5744 169.854 73.4089C169.622 73.2439 169.325 73.1235 168.963 73.0475L168.208 72.8889L168.459 71.6962L169.214 71.8548C169.511 71.9173 169.782 71.9205 170.026 71.8644C170.273 71.8088 170.48 71.7014 170.647 71.542C170.814 71.3798 170.923 71.1747 170.972 70.9267C171.026 70.6854 171.016 70.4641 170.942 70.2628C170.871 70.0593 170.747 69.8865 170.567 69.7443C170.391 69.6027 170.169 69.5039 169.903 69.4478C169.641 69.3929 169.389 69.3893 169.147 69.4371C168.905 69.4849 168.697 69.5821 168.524 69.7286C168.352 69.8723 168.236 70.0629 168.178 70.3002L166.689 69.9874C166.8 69.5115 167.026 69.1206 167.366 68.8147C167.71 68.5066 168.125 68.2978 168.613 68.1883C169.101 68.0761 169.621 68.0781 170.175 68.1943C170.745 68.3141 171.217 68.5251 171.592 68.8274C171.97 69.1275 172.237 69.4811 172.392 69.8883C172.548 70.2954 172.58 70.7158 172.489 71.1495C172.39 71.6311 172.164 72.0044 171.809 72.2695C171.457 72.5352 171.04 72.6696 170.557 72.6727L170.543 72.7394C171.126 72.949 171.54 73.2681 171.783 73.6968C172.031 74.1232 172.097 74.603 171.982 75.1362C171.881 75.6144 171.655 76.0139 171.303 76.3348C170.955 76.6534 170.52 76.8698 170 76.984C169.482 77.0988 168.917 77.0919 168.306 76.9633ZM175.859 78.5506C175.303 78.4338 174.827 78.2249 174.432 77.9241C174.037 77.6205 173.749 77.258 173.568 76.8367C173.389 76.416 173.341 75.9676 173.423 75.4914L174.925 75.8069C174.879 76.163 174.97 76.4812 175.199 76.7615C175.428 77.039 175.736 77.2183 176.122 77.2995C176.425 77.3632 176.709 77.3504 176.975 77.261C177.24 77.1717 177.467 77.0176 177.656 76.7988C177.844 76.58 177.97 76.3118 178.034 75.9943C178.104 75.6724 178.096 75.3717 178.01 75.0923C177.923 74.8128 177.774 74.5768 177.562 74.3842C177.351 74.1888 177.088 74.0581 176.774 73.9921C176.518 73.9355 176.257 73.9299 175.989 73.9752C175.721 74.0205 175.498 74.1073 175.32 74.2353L173.971 73.7124L175.343 69.4024L180.297 70.4434L180.026 71.7362L176.352 70.9642L175.63 73.1769L175.68 73.1875C175.877 73.0345 176.134 72.9272 176.449 72.8656C176.764 72.8013 177.094 72.8053 177.439 72.8778C177.956 72.9865 178.392 73.2058 178.746 73.5357C179.101 73.8629 179.351 74.2637 179.495 74.7381C179.639 75.2126 179.654 75.7237 179.539 76.2714C179.42 76.8357 179.184 77.3115 178.829 77.6986C178.479 78.0836 178.046 78.354 177.531 78.51C177.02 78.6639 176.463 78.6774 175.859 78.5506Z" fill="#252525"/>
<mask id="path-10-outside-3_2692_12987" maskUnits="userSpaceOnUse" x="55.0773" y="94.8873" width="54.4766" height="54.4766" fill="black">
<rect fill="white" x="55.0773" y="94.8873" width="54.4766" height="54.4766"/>
<path d="M60.7858 117.601C63.2845 105.711 74.9493 98.0972 86.8398 100.596C98.7304 103.095 106.344 114.759 103.845 126.65C101.347 138.54 89.6819 146.154 77.7913 143.655C65.9007 141.157 58.2871 129.492 60.7858 117.601Z"/>
</mask>
<path d="M77.7913 143.655L77.997 142.677C66.6469 140.292 59.3793 129.157 61.7644 117.807L60.7858 117.601L59.8072 117.396C57.1949 129.827 65.1546 142.022 77.5857 144.634L77.7913 143.655ZM103.845 126.65L102.867 126.444C100.482 137.794 89.347 145.062 77.997 142.677L77.7913 143.655L77.5857 144.634C90.0167 147.246 102.212 139.287 104.824 126.856L103.845 126.65ZM86.8398 100.596L86.6342 101.574C97.9843 103.96 105.252 115.094 102.867 126.444L103.845 126.65L104.824 126.856C107.436 114.424 99.4765 102.229 87.0455 99.6172L86.8398 100.596ZM86.8398 100.596L87.0455 99.6172C74.6144 97.005 62.4194 104.965 59.8072 117.396L60.7858 117.601L61.7644 117.807C64.1495 106.457 75.2841 99.1894 86.6342 101.574L86.8398 100.596Z" fill="#BBBBBB" mask="url(#path-10-outside-3_2692_12987)"/>
<g clip-path="url(#clip1_2692_12987)">
<g clip-path="url(#clip2_2692_12987)">
<path d="M77.0505 121.019L82.3155 122.126L85.1461 127.717" stroke="#252525" stroke-width="1.5" stroke-linecap="round" stroke-linejoin="round"/>
<path d="M87.3277 131.681C87.2868 131.875 87.3249 132.078 87.4336 132.245C87.5423 132.411 87.7128 132.528 87.9074 132.569C88.1021 132.61 88.305 132.572 88.4716 132.463C88.6382 132.354 88.7547 132.184 88.7956 131.989C88.8365 131.794 88.7984 131.591 88.6897 131.425C88.581 131.258 88.4106 131.142 88.2159 131.101C88.0212 131.06 87.8183 131.098 87.6517 131.207C87.4852 131.315 87.3686 131.486 87.3277 131.681Z" stroke="#252525" stroke-width="1.5" stroke-linecap="round" stroke-linejoin="round"/>
<path d="M72.2417 117.158C72.7967 116.012 73.5445 114.969 74.4526 114.077" stroke="#252525" stroke-width="1.5" stroke-linecap="round" stroke-linejoin="round"/>
<path d="M77.3297 112.055C78.4649 111.474 79.6957 111.102 80.9628 110.958" stroke="#252525" stroke-width="1.5" stroke-linecap="round" stroke-linejoin="round"/>
<path d="M84.4721 111.083C85.7195 111.34 86.9175 111.795 88.0207 112.432" stroke="#252525" stroke-width="1.5" stroke-linecap="round" stroke-linejoin="round"/>
<path d="M90.7231 114.696C91.5686 115.65 92.2481 116.739 92.7335 117.918" stroke="#252525" stroke-width="1.5" stroke-linecap="round" stroke-linejoin="round"/>
<path d="M93.5322 121.315C93.6272 122.585 93.504 123.863 93.168 125.091" stroke="#252525" stroke-width="1.5" stroke-linecap="round" stroke-linejoin="round"/>
<path d="M91.7265 128.303C91.0156 129.366 90.1283 130.299 89.103 131.063" stroke="#252525" stroke-width="1.5" stroke-linecap="round" stroke-linejoin="round"/>
<path d="M84.2591 133.202C82.4481 133.522 80.5862 133.393 78.8367 132.825C77.0873 132.258 75.5037 131.27 74.225 129.949C72.9463 128.627 72.0115 127.011 71.5025 125.244C70.9936 123.477 70.9261 121.612 71.3059 119.812" stroke="#252525" stroke-width="1.5" stroke-linecap="round" stroke-linejoin="round"/>
</g>
</g>
<path d="M114.568 122.772L113.2 122.485L118.068 114.59L119.557 114.903L120.836 124.089L119.468 123.802L118.522 116.305L118.455 116.291L114.568 122.772ZM115.5 119.476L119.937 120.408L119.709 121.492L115.272 120.56L115.5 119.476ZM121.969 124.327L123.315 117.922L124.52 118.175L124.307 119.193L124.373 119.207C124.563 118.886 124.825 118.659 125.161 118.523C125.501 118.386 125.858 118.356 126.234 118.435C126.312 118.451 126.403 118.473 126.507 118.501C126.614 118.53 126.698 118.554 126.757 118.575L126.507 119.768C126.459 119.744 126.374 119.71 126.249 119.666C126.126 119.62 126 119.583 125.872 119.556C125.577 119.494 125.301 119.502 125.044 119.578C124.791 119.653 124.574 119.786 124.394 119.977C124.215 120.166 124.097 120.4 124.038 120.678L123.216 124.589L121.969 124.327ZM126.476 125.274L127.822 118.869L129.027 119.122L128.814 120.14L128.88 120.154C129.07 119.834 129.332 119.606 129.668 119.47C130.008 119.333 130.365 119.303 130.741 119.382C130.819 119.398 130.91 119.421 131.014 119.448C131.122 119.477 131.205 119.501 131.264 119.523L131.014 120.715C130.967 120.691 130.881 120.657 130.756 120.613C130.633 120.567 130.507 120.53 130.379 120.504C130.084 120.442 129.808 120.449 129.551 120.526C129.298 120.6 129.081 120.733 128.901 120.925C128.722 121.113 128.604 121.347 128.545 121.625L127.723 125.537L126.476 125.274ZM130.983 126.222L132.329 119.816L133.576 120.078L132.23 126.484L130.983 126.222ZM133.167 118.96C132.95 118.914 132.779 118.803 132.653 118.626C132.532 118.446 132.492 118.255 132.535 118.052C132.578 117.846 132.691 117.687 132.874 117.575C133.061 117.46 133.263 117.426 133.48 117.471C133.696 117.517 133.866 117.629 133.988 117.809C134.113 117.986 134.154 118.178 134.111 118.383C134.068 118.586 133.954 118.745 133.767 118.86C133.584 118.972 133.384 119.006 133.167 118.96ZM140.733 121.582L137.065 127.5L135.73 127.219L134.749 120.325L136.088 120.606L136.674 125.876L136.741 125.89L139.395 121.301L140.733 121.582ZM143.075 128.898C142.444 128.765 141.929 128.516 141.529 128.15C141.133 127.783 140.863 127.327 140.719 126.783C140.579 126.236 140.578 125.631 140.718 124.967C140.856 124.31 141.1 123.758 141.449 123.309C141.802 122.86 142.229 122.542 142.73 122.354C143.234 122.167 143.783 122.136 144.378 122.261C144.74 122.337 145.077 122.47 145.391 122.661C145.705 122.852 145.97 123.104 146.186 123.416C146.402 123.728 146.545 124.105 146.615 124.547C146.685 124.985 146.659 125.495 146.537 126.076L146.444 126.518L141.353 125.448L141.549 124.514L145.419 125.327C145.488 124.999 145.482 124.695 145.402 124.414C145.322 124.13 145.177 123.889 144.966 123.691C144.758 123.493 144.492 123.36 144.17 123.293C143.82 123.219 143.496 123.241 143.198 123.358C142.904 123.474 142.657 123.654 142.457 123.9C142.261 124.143 142.129 124.424 142.062 124.744L141.909 125.474C141.819 125.902 141.817 126.282 141.905 126.614C141.994 126.946 142.159 127.22 142.398 127.436C142.638 127.649 142.94 127.794 143.304 127.87C143.54 127.92 143.763 127.932 143.971 127.906C144.181 127.877 144.37 127.81 144.541 127.703C144.711 127.597 144.855 127.451 144.972 127.267L146.108 127.728C145.94 128.055 145.706 128.324 145.407 128.534C145.111 128.742 144.764 128.879 144.367 128.947C143.973 129.012 143.542 128.996 143.075 128.898ZM153.051 125.803L151.879 125.766C151.862 125.612 151.816 125.458 151.741 125.306C151.668 125.154 151.554 125.019 151.399 124.899C151.245 124.779 151.038 124.692 150.779 124.638C150.426 124.564 150.115 124.581 149.845 124.69C149.576 124.796 149.416 124.973 149.364 125.22C149.319 125.434 149.362 125.623 149.493 125.787C149.624 125.951 149.857 126.112 150.193 126.27L151.161 126.717C151.722 126.977 152.117 127.279 152.347 127.624C152.576 127.968 152.643 128.367 152.548 128.82C152.467 129.204 152.284 129.522 151.999 129.776C151.717 130.027 151.36 130.196 150.93 130.283C150.502 130.37 150.03 130.359 149.513 130.25C148.795 130.1 148.242 129.824 147.853 129.423C147.465 129.019 147.279 128.523 147.295 127.934L148.539 128.004C148.548 128.334 148.653 128.604 148.852 128.814C149.053 129.022 149.34 129.165 149.716 129.244C150.124 129.329 150.469 129.313 150.749 129.195C151.03 129.074 151.196 128.89 151.248 128.643C151.29 128.442 151.251 128.258 151.129 128.091C151.011 127.923 150.806 127.773 150.514 127.639L149.48 127.174C148.911 126.912 148.514 126.602 148.291 126.244C148.07 125.887 148.007 125.481 148.103 125.025C148.182 124.647 148.357 124.338 148.628 124.099C148.899 123.86 149.237 123.7 149.643 123.62C150.05 123.537 150.493 123.546 150.974 123.647C151.667 123.793 152.18 124.057 152.515 124.441C152.85 124.822 153.028 125.276 153.051 125.803Z" fill="#8E8E8E"/>
<path d="M110.785 134.85L111.057 133.553L117.871 134.985L117.599 136.282L114.959 135.727L113.437 142.971L111.902 142.649L113.424 135.405L110.785 134.85ZM119.162 144.305C118.537 144.174 118.024 143.922 117.623 143.55C117.222 143.179 116.947 142.719 116.798 142.171C116.652 141.623 116.648 141.019 116.787 140.357C116.926 139.695 117.173 139.142 117.528 138.697C117.885 138.253 118.323 137.941 118.839 137.762C119.356 137.583 119.927 137.559 120.552 137.691C121.178 137.822 121.691 138.074 122.092 138.446C122.493 138.817 122.766 139.278 122.912 139.828C123.06 140.379 123.065 140.985 122.926 141.647C122.787 142.309 122.539 142.861 122.182 143.302C121.828 143.745 121.392 144.055 120.876 144.234C120.359 144.413 119.788 144.436 119.162 144.305ZM119.425 143.097C119.764 143.169 120.067 143.135 120.334 142.997C120.602 142.856 120.825 142.638 121.003 142.345C121.183 142.052 121.314 141.711 121.396 141.321C121.479 140.929 121.496 140.563 121.449 140.222C121.405 139.879 121.288 139.589 121.1 139.352C120.912 139.115 120.648 138.961 120.309 138.89C119.962 138.817 119.653 138.85 119.382 138.991C119.114 139.132 118.89 139.35 118.709 139.646C118.531 139.94 118.401 140.283 118.318 140.675C118.237 141.064 118.218 141.429 118.263 141.769C118.31 142.11 118.428 142.399 118.616 142.636C118.808 142.87 119.077 143.024 119.425 143.097ZM123.539 145.094L124.885 138.689L126.328 138.992L126.1 140.08L126.175 140.096C126.385 139.757 126.666 139.517 127.018 139.376C127.371 139.233 127.761 139.206 128.189 139.296C128.623 139.387 128.966 139.569 129.219 139.843C129.476 140.115 129.627 140.444 129.673 140.831L129.74 140.845C129.957 140.519 130.255 140.286 130.636 140.145C131.02 140.002 131.445 139.98 131.909 140.077C132.498 140.201 132.94 140.489 133.234 140.939C133.529 141.39 133.601 141.973 133.451 142.687L132.547 146.987L131.033 146.669L131.888 142.603C131.971 142.205 131.927 141.893 131.754 141.665C131.582 141.434 131.343 141.287 131.037 141.222C130.673 141.146 130.364 141.2 130.11 141.385C129.86 141.567 129.697 141.839 129.621 142.201L128.781 146.196L127.301 145.885L128.168 141.756C128.238 141.425 128.193 141.14 128.035 140.901C127.879 140.662 127.641 140.509 127.321 140.441C127.104 140.396 126.895 140.41 126.694 140.484C126.493 140.555 126.319 140.679 126.171 140.857C126.024 141.033 125.923 141.252 125.867 141.516L125.049 145.411L123.539 145.094ZM136.846 148.021C136.221 147.89 135.708 147.638 135.307 147.266C134.906 146.895 134.631 146.435 134.482 145.887C134.336 145.34 134.332 144.735 134.471 144.073C134.61 143.412 134.857 142.858 135.212 142.413C135.57 141.969 136.007 141.657 136.523 141.478C137.04 141.299 137.611 141.276 138.236 141.407C138.862 141.539 139.375 141.79 139.776 142.162C140.177 142.533 140.45 142.994 140.596 143.544C140.744 144.095 140.749 144.702 140.61 145.363C140.471 146.025 140.223 146.577 139.866 147.018C139.512 147.461 139.076 147.771 138.56 147.95C138.043 148.129 137.472 148.153 136.846 148.021ZM137.109 146.814C137.448 146.885 137.751 146.851 138.018 146.713C138.286 146.572 138.509 146.354 138.687 146.061C138.867 145.768 138.998 145.427 139.08 145.037C139.163 144.645 139.18 144.279 139.133 143.938C139.089 143.595 138.973 143.305 138.784 143.068C138.596 142.831 138.332 142.677 137.993 142.606C137.646 142.533 137.337 142.566 137.066 142.707C136.798 142.848 136.574 143.067 136.393 143.362C136.215 143.656 136.085 143.999 136.003 144.391C135.921 144.78 135.902 145.145 135.947 145.485C135.994 145.826 136.112 146.115 136.3 146.352C136.492 146.587 136.761 146.74 137.109 146.814ZM141.223 148.81L142.569 142.405L144.033 142.712L143.809 143.78L143.876 143.794C144.07 143.449 144.33 143.206 144.656 143.065C144.985 142.922 145.333 142.89 145.7 142.967C145.783 142.984 145.875 143.008 145.977 143.038C146.081 143.066 146.167 143.094 146.233 143.122L145.941 144.511C145.882 144.475 145.785 144.435 145.649 144.389C145.517 144.341 145.387 144.303 145.259 144.276C144.984 144.218 144.724 144.226 144.479 144.3C144.238 144.371 144.033 144.497 143.864 144.68C143.695 144.862 143.582 145.089 143.524 145.362L142.733 149.128L141.223 148.81ZM145.88 149.789L147.226 143.383L148.689 143.691L148.465 144.758L148.532 144.772C148.726 144.427 148.986 144.184 149.312 144.044C149.641 143.901 149.989 143.868 150.356 143.945C150.439 143.963 150.532 143.986 150.633 144.016C150.737 144.044 150.823 144.072 150.889 144.101L150.597 145.489C150.538 145.454 150.441 145.413 150.305 145.367C150.173 145.319 150.043 145.282 149.915 145.255C149.64 145.197 149.38 145.205 149.135 145.278C148.894 145.349 148.689 145.476 148.52 145.658C148.351 145.84 148.238 146.068 148.18 146.34L147.389 150.106L145.88 149.789ZM153.04 151.424C152.414 151.293 151.901 151.041 151.5 150.669C151.099 150.298 150.824 149.838 150.675 149.29C150.529 148.742 150.525 148.138 150.664 147.476C150.803 146.814 151.05 146.261 151.405 145.816C151.763 145.371 152.2 145.06 152.716 144.881C153.233 144.702 153.804 144.678 154.43 144.81C155.055 144.941 155.568 145.193 155.969 145.565C156.37 145.936 156.643 146.397 156.789 146.947C156.937 147.498 156.942 148.104 156.803 148.766C156.664 149.428 156.416 149.979 156.059 150.421C155.705 150.863 155.269 151.174 154.753 151.353C154.236 151.532 153.665 151.555 153.04 151.424ZM153.302 150.216C153.641 150.288 153.944 150.254 154.212 150.116C154.479 149.975 154.702 149.757 154.88 149.464C155.06 149.171 155.192 148.83 155.273 148.44C155.356 148.048 155.373 147.682 155.326 147.341C155.282 146.998 155.166 146.708 154.978 146.471C154.789 146.234 154.526 146.08 154.186 146.009C153.839 145.935 153.53 145.969 153.259 146.11C152.992 146.251 152.767 146.469 152.586 146.765C152.408 147.059 152.278 147.402 152.196 147.794C152.114 148.183 152.095 148.548 152.14 148.888C152.187 149.229 152.305 149.518 152.493 149.755C152.685 149.989 152.955 150.143 153.302 150.216ZM158.555 152.452L158.091 145.666L159.63 145.99L159.81 150.73L159.868 150.743L161.965 146.481L163.488 146.8L163.697 151.521L163.76 151.534L165.81 147.289L167.353 147.613L164.193 153.637L162.621 153.307L162.33 148.726L162.242 148.707L160.131 152.784L158.555 152.452ZM174.885 150.776L174.624 152.019L170.779 151.211L171.04 149.968L174.885 150.776ZM183.61 148.799L181.815 157.34L180.268 157.015L181.746 149.98L181.696 149.969L179.43 150.826L179.728 149.408L182.137 148.49L183.61 148.799ZM183.983 157.796L184.218 156.678L187.794 154.395C188.138 154.168 188.428 153.963 188.663 153.78C188.899 153.598 189.086 153.412 189.225 153.223C189.363 153.035 189.457 152.822 189.507 152.586C189.563 152.316 189.551 152.073 189.469 151.855C189.387 151.635 189.251 151.449 189.059 151.299C188.867 151.148 188.635 151.044 188.362 150.987C188.081 150.928 187.823 150.935 187.587 151.007C187.352 151.076 187.154 151.205 186.993 151.391C186.834 151.579 186.724 151.818 186.663 152.11L185.191 151.801C185.305 151.259 185.528 150.814 185.859 150.465C186.191 150.117 186.596 149.878 187.076 149.75C187.559 149.622 188.082 149.617 188.647 149.736C189.22 149.856 189.7 150.069 190.089 150.374C190.478 150.68 190.752 151.044 190.913 151.466C191.077 151.89 191.108 152.341 191.008 152.819C190.941 153.138 190.814 153.44 190.626 153.723C190.439 154.006 190.152 154.302 189.764 154.613C189.38 154.924 188.855 155.288 188.189 155.706L186.402 156.893L186.39 156.952L190.11 157.733L189.838 159.026L183.983 157.796ZM192.439 158.502C192.186 158.448 191.988 158.314 191.845 158.098C191.702 157.879 191.659 157.644 191.715 157.391C191.765 157.141 191.899 156.945 192.117 156.805C192.335 156.665 192.57 156.622 192.823 156.675C193.068 156.726 193.262 156.86 193.405 157.076C193.551 157.292 193.599 157.526 193.55 157.777C193.511 157.946 193.434 158.091 193.319 158.212C193.206 158.333 193.072 158.421 192.915 158.475C192.762 158.527 192.603 158.536 192.439 158.502ZM193.329 154.269C193.076 154.216 192.878 154.081 192.734 153.865C192.592 153.646 192.548 153.411 192.604 153.159C192.654 152.908 192.788 152.712 193.006 152.572C193.225 152.43 193.461 152.385 193.714 152.438C193.958 152.489 194.152 152.624 194.295 152.843C194.441 153.06 194.489 153.293 194.439 153.544C194.401 153.71 194.325 153.854 194.209 153.975C194.097 154.096 193.962 154.184 193.806 154.238C193.652 154.293 193.493 154.303 193.329 154.269ZM197.806 160.87C197.119 160.726 196.566 160.428 196.147 159.977C195.732 159.524 195.461 158.941 195.335 158.226C195.213 157.51 195.25 156.686 195.445 155.754C195.644 154.823 195.943 154.059 196.341 153.46C196.743 152.86 197.225 152.439 197.787 152.197C198.351 151.955 198.976 151.906 199.659 152.05C200.343 152.194 200.895 152.49 201.315 152.938C201.734 153.386 202.006 153.966 202.129 154.677C202.256 155.388 202.221 156.209 202.026 157.137C201.83 158.071 201.53 158.841 201.127 159.448C200.727 160.052 200.245 160.476 199.68 160.72C199.117 160.964 198.493 161.015 197.806 160.87ZM198.08 159.565C198.614 159.677 199.09 159.503 199.51 159.042C199.932 158.58 200.251 157.835 200.466 156.809C200.609 156.131 200.658 155.546 200.613 155.055C200.568 154.564 200.441 154.174 200.232 153.886C200.023 153.595 199.742 153.413 199.389 153.339C198.858 153.227 198.382 153.403 197.963 153.867C197.544 154.327 197.226 155.066 197.009 156.083C196.863 156.763 196.811 157.35 196.853 157.844C196.897 158.338 197.023 158.73 197.232 159.021C197.442 159.309 197.724 159.49 198.08 159.565ZM205.639 162.516C204.952 162.372 204.399 162.074 203.98 161.623C203.564 161.17 203.294 160.587 203.168 159.872C203.046 159.156 203.083 158.332 203.278 157.4C203.477 156.469 203.775 155.705 204.174 155.106C204.576 154.506 205.058 154.085 205.62 153.843C206.184 153.601 206.808 153.552 207.492 153.696C208.176 153.84 208.728 154.136 209.148 154.584C209.567 155.032 209.839 155.612 209.962 156.323C210.089 157.034 210.054 157.855 209.859 158.783C209.663 159.717 209.363 160.487 208.96 161.094C208.56 161.698 208.078 162.122 207.512 162.366C206.95 162.61 206.326 162.661 205.639 162.516ZM205.913 161.211C206.447 161.323 206.923 161.149 207.342 160.688C207.765 160.226 208.084 159.481 208.299 158.455C208.442 157.777 208.491 157.192 208.446 156.701C208.401 156.21 208.274 155.82 208.064 155.532C207.856 155.241 207.575 155.059 207.221 154.985C206.69 154.873 206.215 155.049 205.796 155.512C205.377 155.973 205.059 156.712 204.842 157.729C204.696 158.409 204.644 158.996 204.685 159.49C204.73 159.984 204.856 160.376 205.065 160.667C205.275 160.955 205.557 161.136 205.913 161.211ZM213.345 163.966L215.14 155.425L218.343 156.098C218.999 156.236 219.524 156.474 219.917 156.812C220.313 157.151 220.58 157.558 220.718 158.034C220.86 158.508 220.874 159.016 220.76 159.558C220.644 160.106 220.427 160.568 220.107 160.945C219.787 161.322 219.376 161.586 218.874 161.736C218.373 161.883 217.793 161.887 217.134 161.749L215.011 161.303L215.278 160.031L217.192 160.433C217.576 160.514 217.904 160.513 218.177 160.431C218.45 160.349 218.669 160.203 218.835 159.994C219.003 159.786 219.12 159.53 219.183 159.227C219.247 158.924 219.243 158.645 219.172 158.389C219.104 158.133 218.959 157.916 218.739 157.736C218.522 157.554 218.22 157.422 217.833 157.341L216.416 157.043L214.892 164.291L213.345 163.966ZM222.698 157.013L224.591 157.411L225.826 164.133L225.926 164.154L229.762 158.498L231.655 158.896L229.861 167.436L228.376 167.124L229.609 161.257L229.53 161.24L225.942 166.587L224.832 166.354L223.702 160.003L223.623 159.986L222.387 165.866L220.903 165.554L222.698 157.013Z" fill="#252525"/>
</g>
<defs>
<filter id="filter0_dddd_2692_12987" x="-0.59042" y="-0.590435" width="357.551" height="351.367" filterUnits="userSpaceOnUse" color-interpolation-filters="sRGB">
<feFlood flood-opacity="0" result="BackgroundImageFix"/>
<feColorMatrix in="SourceAlpha" type="matrix" values="0 0 0 0 0 0 0 0 0 0 0 0 0 0 0 0 0 0 127 0" result="hardAlpha"/>
<feOffset dy="6.48105"/>
<feGaussianBlur stdDeviation="7.56122"/>
<feColorMatrix type="matrix" values="0 0 0 0 0 0 0 0 0 0 0 0 0 0 0 0 0 0 0.1 0"/>
<feBlend mode="normal" in2="BackgroundImageFix" result="effect1_dropShadow_2692_12987"/>
<feColorMatrix in="SourceAlpha" type="matrix" values="0 0 0 0 0 0 0 0 0 0 0 0 0 0 0 0 0 0 127 0" result="hardAlpha"/>
<feOffset dy="27.3644"/>
<feGaussianBlur stdDeviation="13.6822"/>
<feColorMatrix type="matrix" values="0 0 0 0 0 0 0 0 0 0 0 0 0 0 0 0 0 0 0.09 0"/>
<feBlend mode="normal" in2="effect1_dropShadow_2692_12987" result="effect2_dropShadow_2692_12987"/>
<feColorMatrix in="SourceAlpha" type="matrix" values="0 0 0 0 0 0 0 0 0 0 0 0 0 0 0 0 0 0 127 0" result="hardAlpha"/>
<feOffset dy="61.2099"/>
<feGaussianBlur stdDeviation="18.363"/>
<feColorMatrix type="matrix" values="0 0 0 0 0 0 0 0 0 0 0 0 0 0 0 0 0 0 0.05 0"/>
<feBlend mode="normal" in2="effect2_dropShadow_2692_12987" result="effect3_dropShadow_2692_12987"/>
<feColorMatrix in="SourceAlpha" type="matrix" values="0 0 0 0 0 0 0 0 0 0 0 0 0 0 0 0 0 0 127 0" result="hardAlpha"/>
<feOffset dy="108.738"/>
<feGaussianBlur stdDeviation="21.6035"/>
<feColorMatrix type="matrix" values="0 0 0 0 0 0 0 0 0 0 0 0 0 0 0 0 0 0 0.01 0"/>
<feBlend mode="normal" in2="effect3_dropShadow_2692_12987" result="effect4_dropShadow_2692_12987"/>
<feBlend mode="normal" in="SourceGraphic" in2="effect4_dropShadow_2692_12987" result="shape"/>
</filter>
<clipPath id="clip0_2692_12987">
<rect width="24" height="24" fill="white" transform="translate(88.6691 33.5387) rotate(11.8674)"/>
</clipPath>
<clipPath id="clip1_2692_12987">
<rect width="24" height="24" fill="white" transform="translate(73.0398 107.914) rotate(11.8674)"/>
</clipPath>
<clipPath id="clip2_2692_12987">
<rect width="24" height="24" fill="white" transform="translate(73.0398 107.914) rotate(11.8674)"/>
</clipPath>
</defs>
</svg>
