<svg width="179" height="48" viewBox="0 0 179 48" fill="none" xmlns="http://www.w3.org/2000/svg">
<g clip-path="url(#clip0_2739_13543)">
<path d="M79.2658 37.9668H72.262V27.5376H61.5209V37.9668H54.5171V11.1123H61.5209V22.0875H72.262V11.1123H79.2658V37.9637V37.9668Z" fill="#BBBBBB"/>
<path d="M100.551 29.3254H86.0757C86.4251 32.7883 87.9444 33.7616 89.9285 33.7616C91.9127 33.7616 93.12 32.7508 93.3914 31.1535H100.28C99.0724 35.8612 95.1821 38.5098 89.8505 38.5098C83.895 38.5098 79.1499 34.969 79.1499 27.6532C79.1499 21.5823 83.3147 16.6406 90.2405 16.6406C97.1663 16.6406 100.67 21.9317 100.67 27.3038C100.67 27.9278 100.632 28.6266 100.554 29.3285L100.551 29.3254ZM86.3065 25.0451H93.3509C92.9609 22.593 91.7567 21.3857 89.888 21.3857C88.0193 21.3857 86.7745 22.4745 86.3065 25.0451Z" fill="#BBBBBB"/>
<path d="M125.961 37.967H118.14L115.495 23.9563L112.849 37.967H105.028L98.4517 17.1865H106.157L108.881 32.052L111.37 17.3425H119.697L122.342 32.0925L124.988 17.1865H132.538L125.961 37.967Z" fill="#BBBBBB"/>
<path d="M142.889 34.9313L142.035 37.112C140.556 38.0448 138.806 38.5128 136.896 38.5128C133.471 38.5128 130.242 36.3726 130.242 32.3638C130.242 27.9276 134.444 25.2041 141.489 25.2041H142.811V24.8921C142.811 24.4647 142.811 24.0373 142.733 23.3759C142.618 22.3246 141.76 21.3918 140.244 21.3918C138.609 21.3918 137.676 22.4431 137.558 24.2338L130.941 24.2713C130.978 19.4076 135.299 16.6436 140.553 16.6436C147.129 16.6436 149.388 19.5636 149.697 23.3385C149.775 24.3898 149.812 25.594 149.812 26.8793V32.7163C149.812 34.2731 149.89 35.6738 150.202 37.9699H143.354L142.886 34.9345L142.889 34.9313ZM142.811 30.5325V29.1692C139.66 28.9352 137.402 29.7526 137.402 31.8147C137.402 33.0595 138.375 33.7614 139.776 33.7614C141.177 33.7614 142.811 32.7101 142.811 30.5325Z" fill="#BBBBBB"/>
<path d="M157.714 30.495C157.714 31.4684 157.714 31.8958 157.792 32.4012C157.911 33.2185 158.26 33.49 160.088 33.412V38.1602C158.803 38.2756 157.558 38.3536 156.001 38.3536C152.773 38.3536 150.941 37.0683 150.785 34.3073C150.707 33.2185 150.707 32.1672 150.707 30.6105V9.36206H157.711V30.4919L157.714 30.495Z" fill="#BBBBBB"/>
<path d="M171.681 34.9313L170.826 37.112C169.347 38.0448 167.597 38.5128 165.688 38.5128C162.262 38.5128 159.034 36.3726 159.034 32.3638C159.034 27.9276 163.236 25.2041 170.28 25.2041H171.603V24.8921C171.603 24.4647 171.603 24.0373 171.525 23.3759C171.409 22.3246 170.552 21.3918 169.035 21.3918C167.401 21.3918 166.468 22.4431 166.349 24.2338L159.732 24.2713C159.77 19.4076 164.091 16.6436 169.344 16.6436C175.921 16.6436 178.179 19.5636 178.488 23.3385C178.566 24.3898 178.604 25.594 178.604 26.8793V32.7163C178.604 34.2731 178.682 35.6738 178.994 37.9699H172.146L171.678 34.9345L171.681 34.9313ZM171.603 30.5325V29.1692C168.452 28.9352 166.193 29.7526 166.193 31.8147C166.193 33.0595 167.167 33.7614 168.567 33.7614C169.968 33.7614 171.603 32.7101 171.603 30.5325Z" fill="#BBBBBB"/>
<path d="M1.26349 47.6541C0.798648 48.122 0 47.7913 0 47.13V15.4149C0 15.2184 0.0779929 15.0312 0.21838 14.8908L14.8904 0.218766C15.3584 -0.249191 16.1539 0.081499 16.1539 0.742879V24.4309C16.1539 24.8396 16.4846 25.1703 16.8933 25.1703H22.9206C23.6069 25.1703 23.922 26.0219 23.4072 26.4712" fill="#BBBBBB"/>
<path d="M41.7479 0.218522C42.2158 -0.249435 43.0114 0.0812548 43.0114 0.742635V32.4577C43.0114 32.6542 42.9334 32.8414 42.793 32.9818L28.1178 47.6569C27.6499 48.1249 26.8543 47.7942 26.8543 47.1328V23.4448C26.8543 23.0361 26.5237 22.7054 26.115 22.7054H20.0877C19.4013 22.7054 19.0862 21.8538 19.601 21.4045" fill="#BBBBBB"/>
</g>
<defs>
<clipPath id="clip0_2739_13543">
<rect width="179" height="47.8721" fill="white"/>
</clipPath>
</defs>
</svg>
