<svg width="191" height="52" viewBox="0 0 191 52" fill="none" xmlns="http://www.w3.org/2000/svg">
<g clip-path="url(#clip0_2661_12569)">
<path d="M84.5797 40.5122H77.1064V29.3838H65.6452V40.5122H58.1719V11.8574H65.6452V23.5683H77.1064V11.8574H84.5797V40.5089V40.5122Z" fill="#1A7CFF"/>
<path d="M107.292 31.2913H91.8461C92.219 34.9864 93.8401 36.025 95.9573 36.025C98.0744 36.025 99.3627 34.9464 99.6523 33.242H107.002C105.714 38.2653 101.563 41.0915 95.874 41.0915C89.5193 41.0915 84.4561 37.3132 84.4561 29.5071C84.4561 23.0291 88.9001 17.7562 96.2902 17.7562C103.68 17.7562 107.419 23.4019 107.419 29.1342C107.419 29.8 107.379 30.5457 107.295 31.2947L107.292 31.2913ZM92.0925 26.7241H99.609C99.1929 24.1076 97.908 22.8194 95.914 22.8194C93.92 22.8194 92.5918 23.9812 92.0925 26.7241Z" fill="#1A7CFF"/>
<path d="M134.406 40.5122H126.06L123.237 25.5623L120.414 40.5122H112.069L105.052 18.3387H113.274L116.18 34.2007L118.837 18.5051H127.721L130.544 34.244L133.367 18.3387H141.423L134.406 40.5122Z" fill="#1A7CFF"/>
<path d="M152.469 37.2732L151.556 39.6001C149.979 40.5954 148.111 41.0947 146.074 41.0947C142.419 41.0947 138.973 38.8111 138.973 34.5335C138.973 29.7999 143.457 26.8938 150.974 26.8938H152.385V26.5609C152.385 26.1049 152.385 25.6488 152.302 24.9431C152.179 23.8213 151.264 22.8259 149.646 22.8259C147.901 22.8259 146.906 23.9478 146.78 25.8585L139.719 25.8985C139.759 20.7088 144.369 17.7594 149.975 17.7594C156.993 17.7594 159.403 20.8752 159.732 24.9031C159.815 26.025 159.855 27.3099 159.855 28.6814V34.9097C159.855 36.5708 159.939 38.0655 160.271 40.5155H152.965L152.465 37.2765L152.469 37.2732ZM152.385 32.5795V31.1248C149.023 30.8751 146.613 31.7473 146.613 33.9477C146.613 35.2759 147.652 36.0249 149.146 36.0249C150.641 36.0249 152.385 34.903 152.385 32.5795Z" fill="#1A7CFF"/>
<path d="M168.287 32.5396C168.287 33.5782 168.287 34.0343 168.37 34.5735C168.497 35.4457 168.87 35.7353 170.82 35.6521V40.7186C169.449 40.8418 168.121 40.925 166.46 40.925C163.014 40.925 161.06 39.5535 160.894 36.6075C160.811 35.4457 160.811 34.3239 160.811 32.6628V9.98991H168.284V32.5363L168.287 32.5396Z" fill="#1A7CFF"/>
<path d="M183.19 37.2732L182.278 39.6001C180.7 40.5954 178.833 41.0947 176.796 41.0947C173.141 41.0947 169.695 38.8111 169.695 34.5335C169.695 29.7999 174.179 26.8938 181.696 26.8938H183.107V26.5609C183.107 26.1049 183.107 25.6488 183.024 24.9431C182.901 23.8213 181.985 22.8259 180.368 22.8259C178.623 22.8259 177.628 23.9478 177.501 25.8585L170.441 25.8985C170.481 20.7088 175.091 17.7594 180.697 17.7594C187.714 17.7594 190.124 20.8752 190.454 24.9031C190.537 26.025 190.577 27.3099 190.577 28.6814V34.9097C190.577 36.5708 190.66 38.0655 190.993 40.5155H183.686L183.187 37.2765L183.19 37.2732ZM183.107 32.5795V31.1248C179.745 30.8751 177.335 31.7473 177.335 33.9477C177.335 35.2759 178.374 36.0249 179.868 36.0249C181.363 36.0249 183.107 34.903 183.107 32.5795Z" fill="#1A7CFF"/>
<path d="M1.34819 50.8485C0.852188 51.3479 0 50.995 0 50.2893V16.4481C0 16.2384 0.0832215 16.0386 0.23302 15.8888L15.8886 0.233218C16.388 -0.266111 17.2368 0.0867483 17.2368 0.792467V26.0685C17.2368 26.5046 17.5897 26.8574 18.0258 26.8574H24.4571C25.1895 26.8574 25.5257 27.7662 24.9764 28.2456" fill="#1A7CFF"/>
<path d="M44.5466 0.232977C45.0459 -0.266352 45.8948 0.0865071 45.8948 0.792225V34.6334C45.8948 34.8431 45.8115 35.0429 45.6617 35.1927L30.0028 50.8516C29.5034 51.351 28.6546 50.9981 28.6546 50.2924V25.0163C28.6546 24.5803 28.3017 24.2274 27.8656 24.2274H21.4343C20.7019 24.2274 20.3657 23.3186 20.915 22.8393" fill="#1A7CFF"/>
</g>
<defs>
<clipPath id="clip0_2661_12569">
<rect width="191" height="51.0814" fill="white"/>
</clipPath>
</defs>
</svg>
