<svg width="47" height="52" viewBox="0 0 47 52" fill="none" xmlns="http://www.w3.org/2000/svg">
<path d="M1.84916 50.8493C1.35316 51.3486 0.500977 50.9957 0.500977 50.29V16.4488C0.500977 16.2391 0.584198 16.0394 0.733997 15.8896L16.3896 0.233953C16.889 -0.265376 17.7378 0.0874836 17.7378 0.793202V26.0692C17.7378 26.5053 18.0907 26.8582 18.5268 26.8582H24.9581C25.6905 26.8582 26.0267 27.767 25.4774 28.2463" fill="#1A7CFF"/>
<path d="M45.0475 0.233953C45.5469 -0.265376 46.3957 0.0874836 46.3957 0.793202V34.6344C46.3957 34.8441 46.3125 35.0438 46.1627 35.1936L30.5038 50.8526C30.0044 51.3519 29.1556 50.9991 29.1556 50.2934V25.0173C29.1556 24.5812 28.8027 24.2284 28.3666 24.2284H21.9353C21.2029 24.2284 20.8667 23.3196 21.416 22.8402" fill="#1A7CFF"/>
</svg>
